<?xml version="1.0" encoding="UTF-8"?>
<!DOCTYPE svg PUBLIC "-//W3C//DTD SVG 1.1//EN" "http://www.w3.org/Graphics/SVG/1.1/DTD/svg11.dtd">
<!-- Creator: CorelDRAW X7 -->
<svg xmlns="http://www.w3.org/2000/svg" xml:space="preserve" width="108.543mm" height="108.459mm" version="1.1" style="shape-rendering:geometricPrecision; text-rendering:geometricPrecision; image-rendering:optimizeQuality; fill-rule:evenodd; clip-rule:evenodd"
viewBox="0 0 9094 9087"
 xmlns:xlink="http://www.w3.org/1999/xlink">
 <defs>
  <style type="text/css">
   <![CDATA[
    .str0 {stroke:#FEFEFE;stroke-width:354.678}
    .fil0 {fill:none}
    .fil1 {fill:#FEFEFE}
   ]]>
  </style>
 </defs>
 <g id="Layer_x0020_1">
  <metadata id="CorelCorpID_0Corel-Layer"/>
  <path class="fil0 str0" d="M177 4469c0,429 25,716 120,1094 111,445 379,1088 667,1475 39,53 75,104 114,155l442 495c100,100 332,289 438,371 472,361 982,577 1562,722 315,78 633,122 950,129l180 0c309,-7 619,-49 927,-127 436,-110 768,-239 1155,-462 58,-33 113,-63 169,-101 306,-206 461,-313 748,-600 549,-549 971,-1297 1150,-2084 90,-396 97,-582 118,-960l0 -56c-2,-24 -4,-46 -6,-66 -7,-55 3,-100 -7,-192 -3,-23 0,-46 -3,-69 -25,-231 -36,-351 -88,-585 -33,-151 -71,-290 -115,-424 -137,-411 -296,-729 -533,-1084 -118,-177 -196,-268 -318,-420 -51,-62 -203,-225 -265,-274l-107 -99c-91,-88 -271,-229 -370,-304 -208,-156 -424,-290 -676,-402 -64,-29 -127,-53 -187,-83 -374,-191 -1147,-341 -1546,-341 -323,0 -425,-4 -759,43 -401,55 -781,167 -1150,318 -260,107 -538,274 -765,434l-261 201c-124,105 -200,178 -316,294l-367 427c-38,51 -78,103 -113,156 -111,167 -210,321 -301,501 -31,64 -59,116 -87,182 -58,134 -106,234 -154,378 -46,139 -85,261 -122,410 -37,149 -61,285 -85,447 -23,154 -39,332 -39,501z"/>
  <path class="fil1" d="M3703 2745c0,78 0,156 0,234 0,98 28,501 -14,561 -36,51 -199,35 -270,35 -116,1 -355,-50 -355,57l0 851c0,94 97,78 199,78 54,0 80,-7 128,-7 42,0 281,-11 301,33 23,52 18,775 18,861 0,42 8,59 7,92 0,31 -7,44 -7,85l0 1079c0,135 -7,246 -7,383 0,77 -27,347 42,347l1221 0c45,0 57,-78 57,-120 -1,-59 -1,-119 -1,-178 1,-56 -7,-104 -7,-170l13 -2350c3,-36 -8,-38 21,-50 40,-16 609,-16 668,-11 195,16 189,13 227,-314 15,-132 64,-468 64,-566 0,-151 -177,-112 -269,-107 -134,7 -442,-12 -545,2 -35,5 -105,12 -140,-5 -58,-29 -39,-266 -39,-352 0,-85 7,-148 7,-227 0,-225 172,-319 405,-319l574 7c11,-127 21,-163 21,-298l1 -418c0,-49 -7,-74 -8,-113 -3,-93 26,-168 -54,-187 -80,-19 -366,-2 -478,-5l-234 -7c-42,0 -63,7 -113,7 -163,-1 -392,19 -548,55 -268,62 -521,172 -686,393 -17,24 -32,45 -49,71 -101,157 -150,366 -150,573z"/>
 </g>
</svg>
