<?xml version="1.0" encoding="UTF-8"?>
<!DOCTYPE svg PUBLIC "-//W3C//DTD SVG 1.1//EN" "http://www.w3.org/Graphics/SVG/1.1/DTD/svg11.dtd">
<!-- Creator: CorelDRAW X7 -->
<svg xmlns="http://www.w3.org/2000/svg" xml:space="preserve" width="108.543mm" height="108.5mm" version="1.1" style="shape-rendering:geometricPrecision; text-rendering:geometricPrecision; image-rendering:optimizeQuality; fill-rule:evenodd; clip-rule:evenodd"
viewBox="0 0 2999 2998"
 xmlns:xlink="http://www.w3.org/1999/xlink">
 <defs>
  <style type="text/css">
   <![CDATA[
    .str0 {stroke:#FEFEFE;stroke-width:116.979}
    .fil0 {fill:none}
    .fil1 {fill:#FEFEFE}
   ]]>
  </style>
 </defs>
 <g id="Layer_x0020_1">
  <metadata id="CorelCorpID_0Corel-Layer"/>
  <path class="fil0 str0" d="M58 1483c0,176 25,320 76,474 8,24 16,43 24,65l42 94c20,48 67,126 96,171l38 53c38,51 78,100 120,146 22,24 49,46 69,67l47 42c32,29 67,53 102,79 17,13 34,24 53,36 18,12 35,23 55,34l42 23c6,4 8,5 15,9l92 43c76,33 152,60 234,80 74,18 153,31 231,35 11,0 9,2 19,2 8,1 16,0 23,1 109,12 294,-14 379,-34 104,-25 205,-58 300,-105 70,-34 135,-72 200,-116 19,-12 34,-24 51,-37l75 -61c11,-8 15,-15 25,-22l87 -93c7,-8 16,-15 22,-22l44 -48c22,-23 40,-51 58,-78l71 -109c26,-44 46,-89 68,-135 17,-37 33,-75 46,-114 50,-153 58,-210 76,-375 2,-14 -1,-29 2,-43 0,-3 1,-7 1,-12l0 -73c-3,-48 -8,-100 -12,-126 -17,-124 -43,-241 -89,-355 -41,-102 -92,-201 -157,-288l-58 -75c-7,-9 -12,-17 -19,-26 -31,-37 -47,-61 -82,-96 -18,-18 -36,-38 -56,-54 -21,-16 -38,-36 -60,-53 -9,-7 -16,-12 -24,-19 -73,-58 -191,-137 -274,-171 -21,-9 -39,-19 -62,-28 -22,-8 -41,-16 -63,-25 -44,-17 -88,-32 -135,-42 -144,-32 -229,-44 -374,-44 -112,0 -222,18 -313,41 -144,36 -148,46 -263,93 -54,21 -123,62 -171,94 -19,13 -35,24 -52,37 -18,13 -34,25 -52,38 -9,6 -17,11 -25,19l-59 51c-5,5 -7,5 -13,11 -28,27 -85,84 -108,113l-80 98c-43,63 -85,124 -119,192 -30,61 -58,122 -82,185 -50,130 -81,312 -81,453z"/>
  <path class="fil0 str0" d="M650 1249c0,51 -2,493 1,514 4,23 0,51 3,75 9,57 0,52 20,132 16,66 43,128 83,181 66,90 144,138 248,171 39,13 88,20 130,24 25,3 49,1 74,3 47,4 97,5 148,5 40,0 116,-5 151,1l146 -4c37,0 19,5 73,0 11,0 26,0 37,0 41,0 143,-9 176,-16 106,-21 177,-57 250,-131 45,-44 68,-69 97,-132 73,-157 57,-335 60,-512 0,-14 2,-20 2,-37l-2 -262c0,-16 -2,-24 -3,-37 -1,-27 0,-52 -2,-75 -1,-13 -1,-25 -2,-36 -1,-14 -3,-24 -4,-35 -13,-90 -27,-128 -64,-201 -5,-10 -9,-15 -15,-25 -25,-43 -70,-87 -110,-119 -43,-33 -99,-61 -153,-76 -91,-25 -177,-30 -274,-30 -29,0 -48,-2 -75,-2l-220 0c-17,0 -28,2 -47,2 -54,0 -161,-1 -211,4l-67 5c-170,19 -330,122 -395,281 -47,113 -55,205 -55,332z"/>
  <path class="fil0 str0" d="M1476 1961c111,0 129,-8 222,-45l37 -20c12,-8 22,-14 33,-22 80,-60 135,-134 169,-229 44,-120 30,-256 -24,-369 -2,-6 -6,-12 -9,-19 -7,-13 -14,-23 -22,-35 -60,-90 -152,-157 -256,-188 -96,-27 -205,-22 -297,14 -14,6 -26,12 -40,19 -71,35 -135,94 -179,160 -16,25 -27,47 -39,75 -53,120 -49,256 2,377 10,25 26,53 40,74 8,12 15,21 24,32 27,37 80,84 119,108 12,7 25,15 38,21 43,21 119,47 182,47z"/>
  <path class="fil1" d="M1848 1006c0,79 72,123 136,94 31,-15 56,-52 56,-87 0,-47 -41,-98 -86,-98 -32,0 -53,2 -78,27 -13,12 -28,40 -28,64z"/>
 </g>
</svg>
