<?xml version="1.0" encoding="UTF-8"?>
<!DOCTYPE svg PUBLIC "-//W3C//DTD SVG 1.1//EN" "http://www.w3.org/Graphics/SVG/1.1/DTD/svg11.dtd">
<!-- Creator: CorelDRAW X7 -->
<svg xmlns="http://www.w3.org/2000/svg" xml:space="preserve" width="108.543mm" height="108.543mm" version="1.1" style="shape-rendering:geometricPrecision; text-rendering:geometricPrecision; image-rendering:optimizeQuality; fill-rule:evenodd; clip-rule:evenodd"
viewBox="0 0 8951 8951"
 xmlns:xlink="http://www.w3.org/1999/xlink">
 <defs>
  <style type="text/css">
   <![CDATA[
    .str0 {stroke:#FEFEFE;stroke-width:349.098}
    .fil0 {fill:none}
    .fil1 {fill:#FEFEFE}
   ]]>
  </style>
 </defs>
 <g id="Layer_x0020_1">
  <metadata id="CorelCorpID_0Corel-Layer"/>
  <path class="fil0 str0" d="M4371 8776c417,0 727,-26 1124,-125 207,-52 407,-117 601,-195 66,-26 123,-50 185,-80l350 -181c140,-78 270,-170 399,-265 13,-9 24,-15 37,-25l147 -118c17,-15 18,-18 37,-33 172,-134 321,-295 458,-464 140,-171 290,-334 404,-524l148 -250c18,-30 29,-56 45,-88l163 -368c26,-64 49,-122 73,-193 46,-135 88,-268 123,-407 65,-260 102,-533 111,-809l0 -300c-15,-450 -100,-901 -247,-1311l-149 -375c-43,-102 -204,-395 -274,-501 -36,-54 -69,-102 -109,-156 -37,-52 -70,-100 -109,-149 -41,-49 -73,-94 -115,-144l-214 -240c-65,-78 -154,-155 -234,-219 -122,-99 -236,-201 -364,-292 -99,-71 -207,-145 -314,-203l-165 -93c-53,-30 -124,-65 -177,-88 -525,-234 -1075,-405 -1676,-405 -404,0 -772,19 -1121,107 -71,18 -146,33 -212,54 -406,131 -486,157 -852,348 -230,119 -443,265 -646,423 -74,58 -141,125 -214,184l-270 268c-88,89 -165,189 -242,288l-171 234c-109,163 -203,329 -291,505 -107,213 -197,442 -261,675 -20,71 -41,138 -57,214 -7,32 -18,75 -25,108 -27,113 -45,223 -58,340 -22,193 -34,304 -34,501l0 33c0,236 14,481 52,713 63,373 169,686 310,1031l82 183c45,90 88,174 142,256 160,240 302,487 508,693l265 272c88,88 186,169 284,247 154,121 310,227 479,324 357,206 727,382 1134,472 295,65 629,128 940,128z"/>
  <path class="fil1" d="M4413 3784l-563 -86c-83,-17 -180,-51 -247,-81 -178,-81 -269,-125 -419,-238l-275 -214c-17,-14 -31,-25 -46,-37 -58,-45 -152,-119 -200,-170 -19,-19 0,-10 -24,-19 -58,111 -77,292 -77,433 0,116 44,273 74,366 20,60 37,108 64,160 15,30 22,45 40,72 31,47 38,36 46,66 -42,-10 -79,-21 -121,-33 -34,-10 -96,-29 -131,-30 -56,84 4,289 48,364l72 110c65,87 193,197 281,256 39,26 72,48 109,73l112 70 -252 21c-37,1 -43,-8 -83,-8 4,48 101,168 131,205 164,200 227,252 482,355 41,16 72,44 120,55 -43,184 -718,371 -946,408 -108,18 -105,4 -178,4 16,21 43,27 72,39l248 101c129,47 217,80 354,114 136,34 356,74 499,74 44,0 62,-7 112,-7 45,0 62,-7 111,-7 48,0 74,-5 112,-7 190,-10 228,-20 404,-56 119,-25 251,-67 360,-109 174,-66 240,-98 381,-198 114,-81 225,-158 326,-260 49,-49 81,-68 117,-114 23,-30 111,-116 164,-185 100,-127 158,-200 235,-351 8,-15 13,-22 20,-36l54 -121c74,-186 89,-373 123,-575 23,-135 15,-299 34,-434 10,-73 13,-133 48,-182l165 -184c23,-22 33,-39 56,-63 21,-21 97,-110 103,-134 -59,14 -113,26 -177,39 -56,11 -128,31 -186,31 24,-45 106,-147 141,-195 23,-32 130,-167 138,-203l-551 160c-18,-78 -190,-176 -249,-205 -347,-166 -814,-65 -1024,217 -152,204 -207,490 -207,749z"/>
 </g>
</svg>
